# xmcd
#
# Track frame offsets:
#	150
#	11087
#	23119
#	40628
#	51248
#	70648
#	87015
#	103358
#	113620
#	129927
#
# Disc length: 1905 seconds
# Revision: 1
# Processed by: cddbd v1.5.2PL0 Copyright (c) Steve Scherf et al.
# Submitted via: dBpowerAMP V12.0
#
DISCID=75076f0a
DTITLE=Charlie Daniels - Night Hawk
DYEAR=2016
DGENRE=Country
TTITLE0=Big Balls in Cowtown
TTITLE1=Billy the Kid
TTITLE2=Night Hawk
TTITLE3=Stay All Night (Stay a Little Longer)
TTITLE4=Goodnight Loving Trail
TTITLE5=(Ghost) Riders in the Sky: A Cowboy Legend
TTITLE6=Running With the Crowd
TTITLE7=Old Chisholm Trail
TTITLE8=Can’t Beat the Damned Ole Machine
TTITLE9=Yippie Ki Yea
EXTD=
EXTT0=
EXTT1=
EXTT2=
EXTT3=
EXTT4=
EXTT5=
EXTT6=
EXTT7=
EXTT8=
EXTT9=
PLAYORDER=
